<?xml version="1.0" encoding="utf-8"?>
<!-- Generator: Adobe Illustrator 19.0.0, SVG Export Plug-In . SVG Version: 6.00 Build 0)  -->
<svg version="1.1" id="Calque_1" focusable="false" xmlns="http://www.w3.org/2000/svg" xmlns:xlink="http://www.w3.org/1999/xlink"
	 x="0px" y="0px" viewBox="-287 25 384 512" style="enable-background:new -287 25 384 512;" xml:space="preserve">
<style type="text/css">
	.st0{fill:#0065FC;}
</style>
<path class="st0" d="M-167,97c0-39.8,32.2-72,72-72s72,32.2,72,72c0,39.8-32.2,72-72,72S-167,136.8-167,97z M87.6,98.4
	c-12.5-12.5-32.8-12.5-45.3,0L-44.3,185h-101.5l-86.6-86.6c-12.5-12.5-32.8-12.5-45.3,0c-12.5,12.5-12.5,32.8,0,45.3l94.6,94.6V505
	c0,17.7,14.3,32,32,32h16c17.7,0,32-14.3,32-32V393h16v112c0,17.7,14.3,32,32,32h16c17.7,0,32-14.3,32-32V238.3l94.6-94.6
	C100.1,131.1,100.1,110.9,87.6,98.4z"/>
</svg>
