<?xml version="1.0" encoding="utf-8"?>
<!-- Generator: Adobe Illustrator 19.0.0, SVG Export Plug-In . SVG Version: 6.00 Build 0)  -->
<svg version="1.1" id="Calque_1" focusable="false" xmlns="http://www.w3.org/2000/svg" xmlns:xlink="http://www.w3.org/1999/xlink"
	 x="0px" y="0px" viewBox="-191 25 576 512" style="enable-background:new -191 25 576 512;" xml:space="preserve">
<style type="text/css">
	.st0{fill:#0065FC;}
</style>
<path class="st0" d="M107.1,249L257,302.5V521c0,8.8-7.2,16-16,16h-64c-8.8,0-16-7.2-16-16V409H1v112c0,8.8-7.2,16-16,16h-64
	c-8.8,0-16-7.2-16-16V307.1c-37.2-13.3-64-48.4-64-90.1c0-17.7,14.3-32,32-32s32,14.3,32,32c0,17.7,14.3,32,32,32H107.1z M353,137
	v32c0,35.3-28.7,64-64,64h-32v35.6l-128-45.7V73c0-14.3,17.2-21.4,27.3-11.3L183.6,89h53.6c10.9,0,23.8,7.9,28.6,17.7L273,121h64
	C345.8,121,353,128.2,353,137z M241,137c0-8.8-7.2-16-16-16s-16,7.2-16,16s7.2,16,16,16S241,145.8,241,137z"/>
</svg>
