<?xml version="1.0" encoding="utf-8"?>
<!-- Generator: Adobe Illustrator 19.0.0, SVG Export Plug-In . SVG Version: 6.00 Build 0)  -->
<svg version="1.1" id="Calque_1" focusable="false" xmlns="http://www.w3.org/2000/svg" xmlns:xlink="http://www.w3.org/1999/xlink"
	 x="0px" y="0px" viewBox="-159 25 640 512" style="enable-background:new -159 25 640 512;" xml:space="preserve">
<style type="text/css">
	.st0{fill:#0065FC;}
</style>
<path class="st0" d="M462.2,79.5C423.4,63.2,384.5,57,345.8,57c-123.2,0-246.3,62.3-369.5,62.3c-30.9,0-61.8-3.9-92.7-13.7
	c-3.5-1.1-7-1.6-10.3-1.6c-17.2,0-32.3,13.3-32.3,31.8v317.3c0,12.6,7.2,24.6,18.8,29.5c38.8,16.3,77.6,22.5,116.4,22.5
	c123.2,0,246.3-62.4,369.5-62.4c30.9,0,61.8,3.9,92.7,13.7c3.5,1.1,7,1.6,10.3,1.6c17.2,0,32.3-13.3,32.3-31.8V108.9
	C481,96.3,473.8,84.3,462.2,79.5L462.2,79.5z M-111,157.2c20.1,5,41.1,7.6,62.7,8.9c-5.9,29.4-31.7,51.5-62.7,51.5V157.2z
	 M-111,442.2v-47.8c34.4,0,62.2,27.3,63.7,61.4C-69.8,454-90.9,449.5-111,442.2z M161,377c-44.2,0-80-43-80-96c0-53,35.8-96,80-96
	s80,43,80,96C241,334,205.2,377,161,377z M433,404.8c-17.5-4.4-35.7-6.9-54.3-8.4c5.9-26.1,27.5-45.9,54.3-49.3V404.8z M433,168.7
	c-30.9-3.9-54.9-29.7-55.8-61.6c19.5,2.2,38.1,6.2,55.8,12.7V168.7z"/>
</svg>
